<svg width="74" height="75" viewBox="0 0 74 75" fill="none" xmlns="http://www.w3.org/2000/svg">
<path d="M10.0021 67.5357C8.27587 65.8206 7.45808 63.925 7.54904 61.7586C7.54904 61.0365 7.54904 59.5923 7.54904 57.516C7.54904 55.7105 7.54904 54.2662 7.54904 53.2733C7.54904 51.1069 7.36713 48.6697 6.91291 45.8713C6.64032 43.9757 5.82253 42.6216 4.64149 41.8994C3.27882 41.0869 2.64267 39.6427 2.73363 37.4763C2.8243 36.1221 3.27881 35.3099 4.0963 34.9487C5.64089 34.317 6.54936 32.7822 6.91291 30.6158C7.36713 27.7272 7.54904 25.0191 7.54904 22.4916C7.45808 18.7906 7.54904 16.0825 7.54904 14.3674C7.82134 10.215 10.0928 7.50694 14.2723 6.33344C16.5434 5.61129 18.9968 5.43075 21.4498 5.70156C22.4492 5.79183 23.085 6.42372 23.2667 7.41667C23.3576 7.86802 23.3576 8.40964 23.3576 9.0415C23.3576 10.5761 23.2667 11.569 22.9034 12.0204C22.5399 12.4717 21.6314 12.8328 20.0868 13.1036C17.8154 13.555 16.5434 14.7285 16.2708 16.8046C15.9985 18.7003 15.9076 20.0543 15.9076 20.8667C15.8166 24.1164 15.8166 27.1856 15.9076 30.0742C15.9076 32.7822 15.3624 34.9487 14.1813 36.5734C13.3636 37.7471 13.3636 38.8302 14.1813 40.0039C15.3624 41.6286 15.9076 43.795 15.9076 46.4129C15.9076 47.0447 15.9076 50.4749 15.9076 56.6134C15.9076 58.0576 16.0892 59.3214 16.3618 60.3144C16.816 61.9391 17.8154 62.8417 19.36 63.2029C19.5417 63.2029 19.7236 63.2933 19.9962 63.2933C20.3594 63.2933 20.5411 63.3834 20.723 63.3834C21.8131 63.6542 22.5399 63.925 22.8125 64.2862C23.0851 64.6471 23.2667 65.3693 23.3576 66.5427C23.4486 68.4385 23.2667 69.612 22.8125 70.0632C22.3582 70.5145 21.0862 70.7854 19.1784 70.7854C15.2717 70.8757 12.2735 69.7924 10.0021 67.5357Z" fill="#F6BF2B"/>
<path d="M46.9799 37.2982C46.7073 37.3885 46.344 37.4789 45.8898 37.6594C45.3446 37.8398 44.981 37.9302 44.7994 38.0206C44.2542 38.201 43.9816 38.4719 43.8 38.9232C43.6184 39.3745 43.7091 39.7357 43.9816 40.187C44.0726 40.4578 44.2542 40.7286 44.5268 40.9995C44.8904 41.4507 45.072 41.6312 45.163 41.8117C45.7988 42.7145 45.7079 43.3463 45.163 43.888C43.6184 45.1518 42.0738 46.2348 40.5292 47.2278C40.1659 47.4986 39.8024 47.589 39.4388 47.4986C39.0755 47.4085 38.712 47.2278 38.4397 46.8668C38.2578 46.6864 38.0761 46.4156 37.8945 46.0543C37.6219 45.6031 37.44 45.3322 37.3493 45.2418C36.5316 44.0684 35.5321 44.0684 34.6237 45.2418C34.5327 45.4226 34.3511 45.6031 34.1695 45.964C33.9876 46.3252 33.8059 46.5056 33.715 46.596C33.2607 47.1377 32.8975 47.4986 32.5339 47.589C32.1707 47.6793 31.7162 47.589 31.1713 47.2278C29.8993 46.4156 28.4456 45.3322 26.8101 44.0684C26.4468 43.7976 26.2649 43.5268 26.2649 43.0755C26.1742 42.7145 26.2649 42.3533 26.5375 41.902C26.7191 41.6312 26.9917 41.27 27.3553 40.8187C27.7185 40.3674 27.9911 40.0065 28.0821 39.7357C28.2637 39.4648 28.2637 39.194 28.173 38.9232C28.0821 38.6523 27.9004 38.4719 27.6278 38.2911C27.3553 38.1107 26.901 37.9302 26.4468 37.7497C25.8107 37.4789 25.4474 37.2982 25.1748 37.2081C24.1754 36.7568 23.8118 36.0347 24.0844 35.0417C24.5387 33.4167 25.0838 31.9724 25.629 30.6184C26.0833 29.6254 26.901 29.1741 28.0821 29.4449C28.0821 29.4449 28.173 29.4449 28.2637 29.4449C28.3547 29.4449 28.3547 29.4449 28.3547 29.4449C29.2631 29.6254 29.8992 29.806 30.2625 29.806C30.7167 29.8962 31.0803 29.806 31.2619 29.7157C31.5345 29.4449 31.7161 28.5422 31.7161 26.7368C31.7161 26.1952 31.8071 25.7439 31.9887 25.5633C32.1707 25.2925 32.5339 25.2023 32.9881 25.112C34.987 24.9314 36.7132 24.9314 38.3487 25.112C39.2572 25.2023 39.7114 25.7439 39.8933 26.6465C39.8933 26.8271 39.984 27.1882 39.984 27.6395C39.984 28.0909 40.075 28.3617 40.075 28.6325C40.2566 29.806 40.8927 30.2573 41.9828 29.9865C42.2554 29.8962 42.619 29.806 43.0732 29.6254C43.5274 29.4449 43.891 29.3546 44.2542 29.3546C44.981 29.1741 45.5262 29.3546 46.0714 29.9865C46.4347 30.4378 46.7982 31.3405 47.2524 32.7849C47.7067 34.2292 47.9793 35.2222 47.9793 35.8539C47.9793 36.4859 47.7067 37.0276 46.9799 37.2982Z" fill="#1D3C6E"/>
<path d="M64.6966 23.3944V29.8035C64.6966 32.4212 65.7869 34.2267 67.7857 35.3097C69.0577 35.9418 69.6029 37.0251 69.6029 38.4694C69.512 39.8232 68.8761 40.9066 67.5132 41.5383C65.6053 42.5313 64.6966 44.1563 64.6966 46.5031C64.6966 47.9474 64.6966 49.8432 64.6966 52.1901C64.6966 55.1689 64.6966 57.0648 64.6966 57.9674C64.6966 59.6824 64.6966 60.7658 64.6059 61.3074C64.0607 66.1819 61.426 69.1608 56.6106 70.2438C54.0666 70.7855 52.3404 71.0563 51.25 70.8758C49.978 70.7855 49.2512 70.0633 49.1605 68.7996C49.0696 68.4386 49.0696 67.9873 49.0696 67.4457C49.0696 66.0014 49.1605 65.0085 49.4331 64.5569C49.7964 63.9251 50.7048 63.4738 52.1588 63.2934C54.2482 63.0225 55.5203 61.7587 55.7928 59.4116C55.8838 58.6895 55.8838 57.6965 55.8838 56.3426C55.8838 51.2875 55.8838 48.0378 55.8838 46.5935C55.8838 43.9758 56.429 41.8092 57.61 40.1844C58.5185 38.8303 58.5185 37.5665 57.61 36.1222C56.5197 34.4975 55.9745 32.5115 55.9745 30.0743C55.9745 28.2689 55.9745 25.0192 55.9745 20.3252C55.9745 18.9712 55.8838 17.9782 55.7928 17.2561C55.4296 15.0896 54.3392 13.8259 52.4314 13.3745C50.7958 13.0134 49.7964 12.5621 49.4331 11.8399C49.1605 11.3886 49.0696 10.2151 49.0696 8.22918C49.0696 7.77783 49.0696 7.32649 49.1605 6.87514C49.3422 5.79192 49.8874 5.34057 50.8868 5.52111C55.4296 6.15299 57.9733 6.60433 58.6094 6.78487C61.5167 7.95837 63.3339 9.94427 64.1517 12.8329C64.6059 14.548 64.7875 16.0826 64.7875 17.5269C64.6059 17.9782 64.6059 19.8739 64.6966 23.3944Z" fill="#F6BF2B"/>
</svg>
