<svg width="162" height="72" viewBox="0 0 162 72" fill="none" xmlns="http://www.w3.org/2000/svg">
<g clip-path="url(#clip0)">
<path d="M26.0711 3.92773C26.0711 3.18331 26.0711 2.67152 26.1176 2.29931C26.1643 1.69447 26.4907 1.36879 27.0503 1.36879C28.3094 1.32227 29.8015 1.32227 31.4337 1.36879C31.9932 1.36879 32.413 1.69448 32.5996 2.34585C32.6928 2.625 32.8792 3.18331 33.159 4.06731C33.3922 4.81173 33.5788 5.37004 33.672 5.78877C34.045 6.99844 34.558 8.62686 35.1643 10.674C35.8637 13.0934 36.3767 14.7218 36.6098 15.5592C36.7032 15.8384 36.7497 16.071 36.8429 16.2572C36.9828 16.5362 37.1694 16.6294 37.4026 16.6294C37.6824 16.5828 37.8223 16.4432 37.9155 16.164C38.0087 15.7454 38.1021 15.3731 38.1021 15.094C38.1021 14.8613 38.1021 14.3961 38.1021 13.6517C38.1021 6.81235 38.1021 3.46246 38.1021 3.64858C38.1021 2.53195 38.1953 1.83406 38.4285 1.64795C38.6616 1.41532 39.3145 1.32227 40.4803 1.32227C41.273 1.32227 42.0191 1.3688 42.672 1.41532C43.1382 1.46185 43.4181 1.741 43.5113 2.25279C43.558 2.67152 43.558 3.13679 43.558 3.6951C43.558 15.1405 43.558 24.3062 43.558 31.1455C43.558 32.3552 43.4181 33.0996 43.1849 33.3322C42.9518 33.5648 42.2057 33.7044 40.9465 33.7044C40.387 33.7044 39.641 33.7044 38.755 33.7044C38.0087 33.7044 37.4958 33.3322 37.2626 32.5878C37.2161 32.4482 37.1227 32.2156 37.0295 31.8899C36.9363 31.5643 36.8429 31.3317 36.7964 31.1921C36.6565 30.7733 36.0968 29.0053 35.0709 25.9346C34.3715 23.7944 33.8119 22.0263 33.3456 20.6771C33.2057 20.2583 33.0191 19.7466 32.7395 19.1418C32.5996 18.8626 32.413 18.7696 32.1798 18.8161C31.9467 18.8626 31.8068 19.0022 31.6669 19.2814C31.527 19.6535 31.4337 20.3049 31.4337 21.2819C31.4337 22.3055 31.4337 23.9805 31.4337 26.2602C31.4337 28.4469 31.4337 30.0753 31.4337 31.2385C31.4337 32.4947 31.3404 33.1926 31.1072 33.4252C30.8741 33.6578 30.128 33.751 28.869 33.751C28.0762 33.751 27.5166 33.751 27.2369 33.7044C26.5374 33.6114 26.1176 33.2392 26.0711 32.5413C26.0244 32.2156 26.0244 31.6573 26.0244 30.9129C26.0244 28.9122 26.0244 24.4457 26.0244 17.4668C26.0711 10.4414 26.0711 5.92835 26.0711 3.92773Z" fill="#1D3C6E"/>
<path d="M45.7031 17.4661C45.7031 9.13795 45.7031 4.53187 45.7031 3.60134C45.7031 2.43818 45.7965 1.7403 46.0296 1.5542C46.2628 1.32157 46.9156 1.22852 48.0814 1.22852C51.7653 1.22852 55.1228 1.22852 58.2005 1.22852C59.273 1.22852 59.8793 1.32157 60.1124 1.5542C60.3456 1.78682 60.4388 2.39166 60.4388 3.36872C60.4388 4.15966 60.4388 4.81103 60.3923 5.36933C60.3456 5.92764 60.0191 6.25333 59.4129 6.29985C59.1331 6.34639 58.6668 6.34639 57.9673 6.34639C54.7498 6.34639 53.2109 6.34639 53.3974 6.34639C52.6046 6.39291 52.0917 6.53249 51.812 6.81164C51.5322 7.0908 51.3456 7.60258 51.3456 8.347C51.299 9.92889 51.299 11.4177 51.3456 12.9066C51.3456 13.5579 51.4855 13.9767 51.7653 14.2558C52.0451 14.535 52.5114 14.6746 53.1643 14.7211C53.5373 14.7211 54.0969 14.7211 54.7963 14.7211C55.5424 14.7211 56.102 14.7211 56.4751 14.7211C57.0347 14.7676 57.4078 14.8606 57.5942 15.0468C57.7808 15.2329 57.874 15.6051 57.9207 16.1633C57.9673 17.1405 57.9207 18.1175 57.874 19.0945C57.8275 19.7459 57.501 20.0716 56.8016 20.118C56.1021 20.1646 55.0295 20.1646 53.6772 20.1646C52.7912 20.1646 52.2316 20.2576 51.9518 20.4438C51.5787 20.723 51.3923 21.3744 51.299 22.3514C51.2524 23.468 51.2524 24.7241 51.299 26.1665C51.3456 26.9109 51.4855 27.4227 51.7653 27.7019C52.0451 27.981 52.5581 28.1206 53.3508 28.1671C53.2109 28.1671 54.7498 28.1671 57.9207 28.1671C58.6201 28.1671 59.1331 28.2136 59.4129 28.2136C60.0191 28.2602 60.3456 28.5858 60.3923 29.0976C60.532 30.3074 60.532 31.424 60.3923 32.5405C60.3456 33.0989 60.0191 33.4245 59.4129 33.4711C59.0398 33.5175 58.6201 33.5641 58.1539 33.5641C56.6617 33.5641 53.2575 33.5641 48.0347 33.5641C47.7084 33.5641 47.4751 33.5641 47.2887 33.5641C46.729 33.5175 46.356 33.3781 46.1695 33.1919C45.9363 33.0058 45.843 32.6336 45.7965 32.1218C45.7965 31.8892 45.7965 31.3309 45.7965 30.4934V17.4661H45.7031Z" fill="#1D3C6E"/>
<path d="M65.6149 33.0996C64.8221 32.5878 64.2159 32.076 63.8429 31.5176C62.7703 29.8427 62.0708 28.2607 61.8376 26.7254C61.7911 26.3997 61.7911 26.0275 61.8376 25.6554C61.8843 25.1436 62.1175 24.8644 62.6304 24.8178C64.1693 24.5852 65.1485 24.4456 65.7081 24.4456C66.1744 24.3992 66.5009 24.4922 66.734 24.6318C66.9206 24.8178 67.1071 25.1436 67.247 25.6088C67.2937 25.7018 67.3402 25.9345 67.3869 26.2136C67.4801 26.4928 67.5268 26.6789 67.5735 26.8185C67.62 27.0511 67.7132 27.2837 67.8531 27.4699C68.5994 28.7725 69.5319 29.2379 70.6977 29.0053C71.2573 28.8657 71.7236 28.5399 72.0967 28.0281C72.5164 27.5163 72.7028 26.9115 72.7028 26.3067C72.7028 24.9574 72.2832 23.8408 71.3973 22.8638C71.2107 22.6312 70.4179 21.8867 69.1123 20.5375C66.6408 18.0715 65.3351 16.8154 65.2418 16.6758C63.0034 14.2564 61.9775 11.5114 62.2107 8.4872C62.3506 6.71922 62.9569 5.18386 63.9828 3.92765C64.962 2.71798 66.2211 1.92703 67.6667 1.60136C71.0708 0.763882 73.8221 1.41525 75.9204 3.55545C77.0863 4.76513 77.7858 6.30049 78.0189 8.25458C78.0656 8.76637 77.879 9.09205 77.4128 9.23162C76.1537 9.65036 74.9412 9.83647 73.8686 9.88299C73.3092 9.88299 72.9361 9.65037 72.7495 9.13858C72.7028 9.04553 72.6096 8.85941 72.5164 8.53374C72.4232 8.25458 72.3298 8.06847 72.2833 7.92889C71.7703 6.71922 70.9775 6.20743 69.9049 6.39353C68.8325 6.57964 68.2262 7.27753 68.0397 8.58026C67.8066 10.3483 68.3661 11.9767 69.7185 13.5586C70.3714 14.303 71.0708 14.9544 71.8168 15.5126C72.9826 16.3966 74.1951 17.5598 75.361 18.8625C77.6924 21.468 78.6251 24.4922 78.1122 27.8885C77.9257 29.3775 77.3194 30.6801 76.2469 31.8432C75.1744 33.053 74.0085 33.7508 72.6563 33.9835C72.5631 33.9835 71.7236 34.03 70.1381 34.1231C68.4128 34.2162 66.9206 33.8904 65.6149 33.0996Z" fill="#1D3C6E"/>
<path d="M84.7337 9.74279C84.7337 8.95183 84.7337 8.48658 84.7337 8.25395C84.6872 7.69564 84.5472 7.32343 84.3141 7.0908C84.081 6.85816 83.7079 6.71858 83.1483 6.67206C82.8685 6.67206 82.4954 6.62554 82.0292 6.62554C81.5162 6.62554 81.1432 6.62554 80.9566 6.62554C80.4903 6.57901 80.1638 6.48597 79.9774 6.34639C79.7908 6.16028 79.6976 5.88112 79.6509 5.46239C79.6043 4.43881 79.6043 3.41524 79.6509 2.34514C79.6976 1.97293 79.7908 1.69378 79.9307 1.50767C80.1173 1.36809 80.397 1.27504 80.8167 1.22852C81.0498 1.22852 81.3763 1.22852 81.8893 1.22852C88.0447 1.22852 91.8218 1.22852 93.1275 1.22852C94.2001 1.22852 94.8528 1.32157 95.0861 1.5542C95.3192 1.78682 95.4124 2.39166 95.4124 3.5083C95.4124 4.43881 95.4124 5.1367 95.3658 5.50891C95.3192 5.92764 95.226 6.20681 95.0861 6.34639C94.8995 6.53249 94.6197 6.62554 94.2466 6.62554C94.0135 6.67206 93.6405 6.67206 93.2207 6.67206C92.7545 6.67206 92.428 6.67206 92.1948 6.67206C91.4954 6.71858 91.029 6.85816 90.7492 7.13733C90.4695 7.41649 90.3296 7.88174 90.2829 8.57964C90.2829 8.81226 90.2829 9.32404 90.2829 10.208V20.5368C90.2829 24.7707 90.2829 28.2136 90.2829 30.8656C90.2829 31.7031 90.2829 32.3079 90.2364 32.6801C90.1897 33.2849 89.8632 33.6107 89.3037 33.6107C88.0912 33.6571 86.9254 33.6571 85.8063 33.6107C85.2001 33.5641 84.8736 33.2385 84.7804 32.5405C84.7337 32.2614 84.7337 31.7962 84.7337 31.0518C84.7337 29.2372 84.7337 25.6547 84.7337 20.3042V9.74279Z" fill="#1D3C6E"/>
<path d="M103.806 31.9827C102.92 31.0987 102.501 30.1217 102.547 29.0051C102.547 28.6329 102.547 27.8885 102.547 26.8184C102.547 25.8878 102.547 25.1434 102.547 24.6316C102.547 23.515 102.454 22.2589 102.221 20.8165C102.081 19.8395 101.661 19.1415 101.055 18.7694C100.355 18.3506 100.029 17.6062 100.076 16.4896C100.122 15.7916 100.355 15.373 100.775 15.1868C101.568 14.8612 102.034 14.0702 102.221 12.9536C102.454 11.4647 102.547 10.069 102.547 8.76623C102.501 6.85867 102.547 5.46288 102.547 4.57889C102.687 2.43869 103.853 1.04291 105.998 0.43807C107.164 0.0658614 108.423 -0.0271894 109.682 0.112389C110.195 0.158915 110.521 0.484599 110.614 0.996385C110.661 1.22902 110.661 1.50817 110.661 1.83385C110.661 2.62479 110.614 3.13658 110.428 3.36921C110.241 3.60185 109.775 3.78794 108.982 3.92752C107.816 4.16015 107.164 4.765 107.024 5.83509C106.884 6.81215 106.837 7.51003 106.837 7.92877C106.791 9.60371 106.791 11.1856 106.837 12.6744C106.837 14.0702 106.557 15.1868 105.951 16.0242C105.532 16.6292 105.532 17.1874 105.951 17.7924C106.557 18.6298 106.837 19.7463 106.837 21.0957C106.837 21.4213 106.837 23.1893 106.837 26.3532C106.837 27.0975 106.93 27.7489 107.07 28.2607C107.304 29.0981 107.816 29.5633 108.609 29.7495C108.702 29.7495 108.796 29.7961 108.936 29.7961C109.122 29.7961 109.215 29.8425 109.309 29.8425C109.868 29.9821 110.241 30.1217 110.381 30.3079C110.521 30.4939 110.614 30.8661 110.661 31.4709C110.708 32.448 110.614 33.0528 110.381 33.2854C110.148 33.518 109.495 33.6576 108.516 33.6576C106.511 33.7042 104.972 33.1458 103.806 31.9827Z" fill="#F6BF2B"/>
<path d="M122.785 16.3976C122.646 16.4442 122.459 16.4908 122.226 16.5838C121.946 16.6768 121.76 16.7234 121.666 16.77C121.386 16.863 121.247 17.0026 121.153 17.2352C121.06 17.4678 121.107 17.654 121.247 17.8866C121.293 18.0261 121.386 18.1657 121.526 18.3053C121.713 18.5379 121.806 18.6309 121.853 18.724C122.179 19.1893 122.133 19.5149 121.853 19.7941C121.06 20.4455 120.267 21.0037 119.475 21.5155C119.288 21.6551 119.102 21.7017 118.915 21.6551C118.728 21.6087 118.542 21.5155 118.402 21.3295C118.309 21.2365 118.216 21.0969 118.122 20.9107C117.982 20.6781 117.889 20.5385 117.842 20.4919C117.423 19.8871 116.91 19.8871 116.444 20.4919C116.397 20.5851 116.304 20.6781 116.21 20.8641C116.117 21.0503 116.024 21.1433 115.977 21.1899C115.744 21.4691 115.558 21.6551 115.371 21.7017C115.185 21.7483 114.951 21.7017 114.672 21.5155C114.019 21.0969 113.273 20.5385 112.433 19.8871C112.247 19.7475 112.153 19.6079 112.153 19.3753C112.107 19.1893 112.153 19.0031 112.293 18.7705C112.386 18.6309 112.526 18.4448 112.713 18.2122C112.899 17.9796 113.039 17.7935 113.086 17.654C113.179 17.5144 113.179 17.3748 113.133 17.2352C113.086 17.0956 112.993 17.0026 112.853 16.9094C112.713 16.8164 112.48 16.7234 112.247 16.6304C111.92 16.4908 111.734 16.3976 111.594 16.3512C111.081 16.1186 110.894 15.7464 111.034 15.2346C111.267 14.3971 111.547 13.6526 111.827 12.9548C112.06 12.443 112.48 12.2103 113.086 12.3499C113.086 12.3499 113.133 12.3499 113.179 12.3499C113.226 12.3499 113.226 12.3499 113.226 12.3499C113.692 12.443 114.019 12.536 114.205 12.536C114.438 12.5825 114.625 12.536 114.718 12.4895C114.858 12.3499 114.951 11.8847 114.951 10.9541C114.951 10.675 114.998 10.4424 115.091 10.3493C115.185 10.2097 115.371 10.1632 115.604 10.1167C116.63 10.0236 117.516 10.0236 118.355 10.1167C118.822 10.1632 119.055 10.4424 119.148 10.9076C119.148 11.0007 119.195 11.1868 119.195 11.4194C119.195 11.652 119.241 11.7916 119.241 11.9312C119.335 12.536 119.661 12.7687 120.221 12.6291C120.361 12.5826 120.547 12.536 120.78 12.443C121.013 12.3499 121.2 12.3034 121.386 12.3034C121.76 12.2103 122.039 12.3034 122.319 12.6291C122.506 12.8617 122.692 13.327 122.925 14.0714C123.158 14.8158 123.298 15.3276 123.298 15.6532C123.298 15.979 123.158 16.2582 122.785 16.3976Z" fill="#1D3C6E"/>
<path d="M131.879 9.2321V12.5354C131.879 13.8847 132.438 14.8152 133.464 15.3735C134.117 15.6992 134.397 16.2576 134.397 17.002C134.35 17.6998 134.024 18.2582 133.324 18.5838C132.345 19.0956 131.879 19.9331 131.879 21.1427C131.879 21.8871 131.879 22.8643 131.879 24.0739C131.879 25.6092 131.879 26.5864 131.879 27.0516C131.879 27.9356 131.879 28.4939 131.832 28.7731C131.552 31.2855 130.2 32.8208 127.728 33.3791C126.423 33.6582 125.537 33.7978 124.977 33.7048C124.324 33.6582 123.951 33.286 123.905 32.6347C123.858 32.4486 123.858 32.216 123.858 31.9368C123.858 31.1925 123.905 30.6807 124.045 30.4479C124.231 30.1223 124.697 29.8897 125.443 29.7967C126.516 29.6571 127.169 29.0057 127.309 27.796C127.355 27.4238 127.355 26.912 127.355 26.2142C127.355 23.6087 127.355 21.9337 127.355 21.1893C127.355 19.8401 127.635 18.7234 128.241 17.886C128.708 17.188 128.708 16.5366 128.241 15.7922C127.682 14.9548 127.402 13.9312 127.402 12.675C127.402 11.7445 127.402 10.0696 127.402 7.65021C127.402 6.95232 127.355 6.44053 127.309 6.06832C127.122 4.9517 126.563 4.30034 125.583 4.06771C124.744 3.88161 124.231 3.64897 124.045 3.27676C123.905 3.04413 123.858 2.4393 123.858 1.41572C123.858 1.18309 123.858 0.950462 123.905 0.717831C123.998 0.159518 124.278 -0.0731124 124.791 0.0199397C127.122 0.345622 128.428 0.57825 128.754 0.671302C130.246 1.27614 131.179 2.29971 131.599 3.78855C131.832 4.67255 131.925 5.46349 131.925 6.2079C131.832 6.44053 131.832 7.41759 131.879 9.2321Z" fill="#F6BF2B"/>
<path d="M0.00387012 55.1989C0.00387012 49.7554 0.00387012 46.7776 0.00387012 46.3124C-0.0427617 44.8701 0.330294 43.5209 1.2163 42.2181C2.14893 40.8689 3.36137 39.8918 4.85358 39.3336C5.41316 39.1008 5.97273 39.0078 6.43906 39.0078C7.79138 39.0078 8.77065 39.0078 9.37687 39.0078C9.79655 39.0078 10.2162 39.1008 10.6359 39.2404C11.8017 39.6126 13.154 40.7293 14.6929 42.5439C15.3924 43.3813 15.7654 44.4979 15.7654 45.9402C15.8121 47.429 15.8121 48.4992 15.7654 49.197C15.7654 49.7554 15.6255 50.1276 15.439 50.3137C15.2524 50.4997 14.8794 50.5929 14.3198 50.5929C13.3406 50.6393 12.3613 50.5929 11.382 50.5929C10.7292 50.5463 10.4028 50.2206 10.3095 49.5693C10.3095 49.5693 10.3095 48.8714 10.2629 47.3826C10.2162 46.545 9.93645 45.8006 9.4235 45.2423C8.95717 44.7305 8.35097 44.4515 7.74475 44.4515C7.0919 44.4515 6.53233 44.7305 6.066 45.2423C5.59969 45.7541 5.31989 46.359 5.27326 47.0104C5.22664 47.3826 5.22664 47.8944 5.22664 48.4526C5.22664 53.7101 5.22664 58.1766 5.22664 61.8521C5.22664 62.5035 5.27326 63.1084 5.3199 63.6666C5.41316 64.2714 5.59969 64.7832 5.87948 65.202C6.29916 65.8534 6.90538 66.179 7.60485 66.2256C8.30433 66.2722 8.95717 65.993 9.47012 65.4346C9.98307 64.8298 10.2629 64.1318 10.3095 63.2479C10.3095 63.0618 10.3095 62.6431 10.3095 61.9917C10.3095 61.4799 10.3561 61.0613 10.3561 60.7355C10.4028 60.2237 10.496 59.8981 10.6359 59.7119C10.8225 59.5259 11.1489 59.4327 11.6618 59.3863C12.6411 59.3397 13.667 59.3397 14.7862 59.3863C15.439 59.4327 15.7654 59.7585 15.8121 60.4099C15.952 62.9688 15.9053 64.7368 15.7654 65.6672C15.1592 68.8775 13.2473 70.8782 10.1696 71.6691C6.53233 72.5996 3.50126 71.4365 1.0764 68.2261C0.423556 67.3422 0.0971342 66.1326 0.0971342 64.5972V55.1989H0.00387012Z" fill="#1D3C6E"/>
<path d="M33.7653 47.6152C33.7653 54.8733 33.7653 59.9446 33.7653 62.9689C33.7653 63.4341 33.6253 64.6438 33.2988 66.5514C33.2056 66.9236 33.0657 67.2958 32.8326 67.7145C31.0139 70.6457 28.5425 72.0879 25.4181 71.9949C22.2472 71.9019 19.9156 70.4595 18.4234 67.7145C17.8638 66.691 17.584 65.4812 17.584 63.9924V55.2455C17.584 49.802 17.584 46.9639 17.584 46.6847C17.5374 43.9397 18.843 41.6134 21.5011 39.6592C22.0606 39.287 22.6202 39.0079 23.1797 38.9148C25.0451 38.6357 26.7239 38.6357 28.1228 38.9614C29.1952 39.194 30.2211 39.7524 31.2005 40.6828C32.1797 41.6134 32.8326 42.5904 33.1589 43.6605C33.5321 45.1029 33.7653 46.4055 33.7653 47.6152ZM27.5632 64.8764C27.7498 64.4576 27.843 63.8529 27.843 63.1085C27.843 55.2921 27.843 50.0812 27.843 47.4756C27.843 46.8708 27.7498 46.3591 27.6098 45.8473C27.2368 44.7307 26.444 44.2189 25.185 44.3119C23.9725 44.4049 23.2731 45.0563 23.0865 46.2195C23.04 46.4986 23.04 46.9638 23.04 47.6618V62.7363C23.04 63.6667 23.1332 64.3181 23.2731 64.7368C23.6462 65.6674 24.3455 66.1792 25.3715 66.1792C26.444 66.2256 27.1901 65.807 27.5632 64.8764Z" fill="#1D3C6E"/>
<path d="M35.5839 41.4275C35.5839 40.2643 35.6773 39.6129 35.9104 39.3803C36.1435 39.1477 36.7964 39.0547 37.9622 39.0547C38.8949 39.0547 39.5476 39.0547 39.9673 39.1013C40.6202 39.1477 40.9932 39.4735 41.0399 40.1247C41.0864 40.4505 41.0864 41.0553 41.0864 41.9392V52.268C41.0864 56.8741 41.0864 60.2706 41.0864 62.5969C41.0864 63.5273 41.0864 64.1321 41.1331 64.4113C41.2263 65.4349 41.786 65.9933 42.7652 66.0398C42.8586 66.0398 43.8845 66.0398 45.8896 66.0863C47.4284 66.0863 48.2678 66.1329 48.4543 66.1329C49.1072 66.1793 49.4802 66.5516 49.4802 67.2029C49.5268 68.3196 49.5268 69.3896 49.4802 70.5063C49.4802 71.1111 49.1072 71.4833 48.4077 71.5299C48.1745 71.5764 47.8015 71.5764 47.3352 71.5764C42.3456 71.5764 39.128 71.5764 37.7291 71.5764C36.7032 71.5764 36.0503 71.4368 35.8637 71.2507C35.6306 71.0181 35.5374 70.4132 35.5374 69.3896V55.3387C35.5839 47.1037 35.5839 42.451 35.5839 41.4275Z" fill="#1D3C6E"/>
<path d="M51.2055 41.4275C51.2055 40.2643 51.2988 39.6129 51.532 39.3803C51.7651 39.1477 52.418 39.0547 53.5838 39.0547C54.5165 39.0547 55.1692 39.0547 55.5889 39.1013C56.2418 39.1477 56.6148 39.4735 56.6615 40.1247C56.708 40.4505 56.708 41.0553 56.708 41.9392V52.268C56.708 56.8741 56.708 60.2706 56.708 62.5969C56.708 63.5273 56.708 64.1321 56.7547 64.4113C56.8479 65.4349 57.4076 65.9933 58.3868 66.0398C58.4802 66.0398 59.5061 66.0398 61.5112 66.0863C63.05 66.0863 63.8893 66.1329 64.0759 66.1329C64.7288 66.1793 65.1018 66.5516 65.1018 67.2029C65.1484 68.3196 65.1484 69.3896 65.1018 70.5063C65.1018 71.1111 64.7288 71.4833 64.0292 71.5299C63.7961 71.5764 63.4231 71.5764 62.9568 71.5764C57.9672 71.5764 54.7496 71.5764 53.3506 71.5764C52.3247 71.5764 51.6719 71.4368 51.4853 71.2507C51.2522 71.0181 51.1589 70.4132 51.1589 69.3896V55.3387C51.2055 47.1037 51.2055 42.451 51.2055 41.4275Z" fill="#1D3C6E"/>
<path d="M66.8738 55.3392C66.8738 47.011 66.8738 42.4049 66.8738 41.4743C66.8738 40.3112 66.967 39.6133 67.2001 39.4272C67.4334 39.1946 68.0863 39.1016 69.2519 39.1016C72.936 39.1016 76.2934 39.1016 79.3711 39.1016C80.4436 39.1016 81.0498 39.1946 81.2831 39.4272C81.5162 39.6598 81.6095 40.2647 81.6095 41.2417C81.6095 42.0327 81.6095 42.6841 81.5628 43.2423C81.5162 43.8007 81.1897 44.1263 80.5836 44.1729C80.3037 44.2194 79.8375 44.2194 79.1379 44.2194C75.9203 44.2194 74.3815 44.2194 74.5681 44.2194C73.7753 44.2659 73.2623 44.4055 72.9825 44.6846C72.7028 44.9638 72.5162 45.4756 72.5162 46.22C72.4696 47.802 72.4696 49.2907 72.5162 50.7795C72.5162 51.4309 72.6562 51.8497 72.936 52.1289C73.2156 52.408 73.6821 52.5475 74.3349 52.5941C74.708 52.5941 75.2674 52.5941 75.967 52.5941C76.7131 52.5941 77.2727 52.5941 77.6458 52.5941C78.2054 52.6406 78.5784 52.7337 78.7649 52.9198C78.9515 53.1059 79.0447 53.4781 79.0914 54.0364C79.1379 55.0134 79.0914 55.9906 79.0447 56.9676C78.998 57.6189 78.6717 57.9445 77.9721 57.9911C77.2727 58.0376 76.2001 58.0377 74.8479 58.0377C73.9619 58.0377 73.4022 58.1307 73.1224 58.3167C72.7494 58.5959 72.5629 59.2473 72.4696 60.2243C72.423 61.341 72.423 62.5972 72.4696 64.0394C72.5162 64.784 72.6562 65.2957 72.936 65.5748C73.2156 65.854 73.7287 65.9936 74.5214 66.0401C74.3815 66.0401 75.9203 66.0401 79.0914 66.0401C79.7908 66.0401 80.3037 66.0866 80.5836 66.0866C81.1897 66.1332 81.5162 66.4589 81.5628 66.9707C81.7027 68.1803 81.7027 69.2969 81.5628 70.4136C81.5162 70.9718 81.1897 71.2976 80.5836 71.344C80.2105 71.3906 79.7908 71.4372 79.3245 71.4372C77.8322 71.4372 74.4281 71.4372 69.2054 71.4372C68.8789 71.4372 68.6458 71.4372 68.4593 71.4372C67.8997 71.3906 67.5266 71.251 67.34 71.065C67.1069 70.8788 67.0137 70.5066 66.967 69.9949C66.967 69.7622 66.967 69.2039 66.967 68.3665V55.3392H66.8738Z" fill="#1D3C6E"/>
<path d="M83.2883 55.1989C83.2883 49.7554 83.2883 46.7776 83.2883 46.3124C83.2416 44.8701 83.6147 43.5209 84.5007 42.2181C85.4333 40.8689 86.6458 39.8918 88.138 39.3336C88.6976 39.1008 89.2571 39.0078 89.7234 39.0078C91.0758 39.0078 92.055 39.0078 92.6613 39.0078C93.0809 39.0078 93.5006 39.1008 93.9204 39.2404C95.0862 39.6126 96.4384 40.7293 97.9773 42.5439C98.6768 43.3813 99.0499 44.4979 99.0499 45.9402C99.0964 47.429 99.0964 48.4992 99.0499 49.197C99.0499 49.7554 98.91 50.1276 98.7234 50.3137C98.5369 50.4997 98.1639 50.5929 97.6042 50.5929C96.625 50.6393 95.6457 50.5929 94.6664 50.5929C94.0136 50.5463 93.6872 50.2206 93.5939 49.5693C93.5939 49.5693 93.5939 48.8714 93.5473 47.3826C93.5006 46.545 93.2208 45.8006 92.7079 45.2423C92.2416 44.7305 91.6354 44.4515 91.0291 44.4515C90.3762 44.4515 89.8168 44.7305 89.3503 45.2423C88.8841 45.7541 88.6043 46.359 88.5577 47.0104C88.511 47.3826 88.511 47.8944 88.511 48.4526C88.511 53.7101 88.511 58.1766 88.511 61.8521C88.511 62.5035 88.5577 63.1084 88.6043 63.6666C88.6976 64.2714 88.8841 64.7832 89.1639 65.202C89.5836 65.8534 90.1898 66.179 90.8892 66.2256C91.5887 66.2722 92.2416 65.993 92.7545 65.4346C93.2675 64.8298 93.5473 64.1318 93.5939 63.2479C93.5939 63.0618 93.5939 62.6431 93.5939 61.9917C93.5939 61.4799 93.6405 61.0613 93.6405 60.7355C93.6872 60.2237 93.7805 59.8981 93.9204 59.7119C94.1068 59.5259 94.4333 59.4327 94.9463 59.3863C95.9255 59.3397 96.9514 59.3397 98.0705 59.3863C98.7234 59.4327 99.0499 59.7585 99.0964 60.4099C99.2363 62.9688 99.1898 64.7368 99.0499 65.6672C98.4435 68.8775 96.5317 70.8782 93.4539 71.6691C89.8168 72.5996 86.7856 71.4365 84.3607 68.2261C83.7079 67.3422 83.3815 66.1326 83.3815 64.5972V55.1989H83.2883Z" fill="#1D3C6E"/>
<path d="M105.858 47.6158C105.858 46.8248 105.858 46.3596 105.858 46.127C105.812 45.5686 105.672 45.1964 105.438 44.9638C105.205 44.7312 104.832 44.5916 104.273 44.5451C103.993 44.5451 103.62 44.4985 103.153 44.4985C102.64 44.4985 102.267 44.4985 102.081 44.4985C101.615 44.452 101.288 44.359 101.102 44.2194C100.915 44.0333 100.822 43.7541 100.775 43.3355C100.729 42.3119 100.729 41.2883 100.775 40.2181C100.822 39.846 100.915 39.5668 101.055 39.3807C101.242 39.2412 101.521 39.148 101.941 39.1016C102.174 39.1016 102.501 39.1016 103.014 39.1016C109.169 39.1016 112.946 39.1016 114.252 39.1016C115.324 39.1016 115.977 39.1946 116.21 39.4272C116.443 39.6598 116.537 40.2647 116.537 41.3813C116.537 42.3119 116.537 43.0097 116.49 43.3819C116.444 43.8007 116.35 44.0798 116.21 44.2194C116.024 44.4055 115.744 44.4985 115.371 44.4985C115.138 44.5451 114.765 44.5451 114.345 44.5451C113.879 44.5451 113.552 44.5451 113.319 44.5451C112.62 44.5916 112.153 44.7312 111.874 45.0103C111.594 45.2894 111.454 45.7548 111.407 46.4526C111.407 46.6852 111.407 47.197 111.407 48.081V58.4099C111.407 62.6437 111.407 66.0866 111.407 68.7387C111.407 69.5761 111.407 70.1809 111.361 70.5531C111.314 71.158 110.988 71.4836 110.428 71.4836C109.216 71.5302 108.05 71.5302 106.931 71.4836C106.324 71.4372 105.998 71.1114 105.905 70.4136C105.858 70.1344 105.858 69.6691 105.858 68.9247C105.858 67.1102 105.858 63.5278 105.858 58.1772V47.6158Z" fill="#1D3C6E"/>
<path d="M123.765 55.3392C123.765 63.5276 123.765 68.1803 123.765 69.2039C123.765 70.3671 123.671 71.0184 123.438 71.251C123.205 71.4836 122.506 71.5766 121.386 71.5766C120.501 71.5766 119.848 71.5766 119.335 71.5302C118.729 71.4836 118.355 71.1114 118.262 70.4601C118.216 70.1344 118.216 69.6227 118.216 68.9713C118.216 56.7349 118.216 47.5692 118.216 41.4279C118.216 40.3112 118.309 39.6133 118.542 39.4272C118.775 39.1946 119.428 39.1016 120.64 39.1016C121.573 39.1016 122.226 39.1016 122.646 39.148C123.298 39.1946 123.625 39.5668 123.718 40.2181C123.765 40.5438 123.765 41.0556 123.765 41.8465V55.3392Z" fill="#1D3C6E"/>
<path d="M134.816 71.5777C133.231 71.5777 132.345 71.5777 132.205 71.5777C131.552 71.5777 131.179 71.2521 131.039 70.6473C130.899 70.1819 130.806 69.7633 130.76 69.3911C130.387 67.2974 129.874 64.4128 129.221 60.7371C128.475 56.5964 127.962 53.7117 127.682 52.0833C127.402 50.6875 127.076 48.873 126.703 46.6863C126.19 43.7551 125.863 41.9871 125.723 41.2893C125.677 41.0566 125.63 40.917 125.63 40.731C125.584 40.0796 125.63 39.6608 125.817 39.3816C126.003 39.149 126.423 39.0094 127.076 39.0094C128.102 38.963 129.081 38.963 130.013 39.0094C130.48 39.056 130.806 39.149 130.993 39.2886C131.179 39.4748 131.319 39.754 131.412 40.1726C131.646 41.3358 131.832 42.6385 132.112 44.1273C132.298 45.1509 132.625 47.2912 133.091 50.4549C133.511 53.1069 133.837 55.2006 134.117 56.7824C134.164 57.1546 134.35 57.6664 134.583 58.3644C134.63 58.5504 134.77 58.6435 134.956 58.69C135.236 58.7366 135.376 58.597 135.469 58.2713C135.656 57.4338 135.796 56.7824 135.889 56.2706C136.169 54.5957 136.589 52.2695 137.055 49.2452C137.568 45.9419 137.988 43.6155 138.174 42.2198C138.267 41.7545 138.407 41.0566 138.594 40.0796C138.734 39.4282 139.107 39.056 139.713 39.056C141.112 39.0094 142.371 39.0094 143.397 39.056C144.096 39.1026 144.423 39.4748 144.376 40.1726C144.329 40.917 144.19 41.8011 144.003 42.8711C142.791 49.571 141.159 58.1782 139.247 68.7861C139.153 69.2979 139.013 69.9029 138.874 70.5541C138.734 71.2055 138.314 71.5313 137.708 71.5313C137.381 71.5313 136.449 71.5313 134.816 71.5777Z" fill="#1D3C6E"/>
<path d="M146.055 55.3392C146.055 47.011 146.055 42.4049 146.055 41.4743C146.055 40.3112 146.148 39.6133 146.381 39.4272C146.614 39.1946 147.267 39.1016 148.433 39.1016C152.117 39.1016 155.474 39.1016 158.552 39.1016C159.625 39.1016 160.231 39.1946 160.464 39.4272C160.697 39.6598 160.791 40.2647 160.791 41.2417C160.791 42.0327 160.791 42.6841 160.744 43.2423C160.697 43.8007 160.371 44.1263 159.764 44.1729C159.485 44.2194 159.018 44.2194 158.318 44.2194C155.102 44.2194 153.563 44.2194 153.748 44.2194C152.956 44.2659 152.444 44.4055 152.164 44.6846C151.884 44.9638 151.697 45.4756 151.697 46.22C151.651 47.802 151.651 49.2907 151.697 50.7795C151.697 51.4309 151.837 51.8497 152.117 52.1289C152.396 52.408 152.863 52.5475 153.516 52.5941C153.888 52.5941 154.448 52.5941 155.147 52.5941C155.894 52.5941 156.454 52.5941 156.826 52.5941C157.386 52.6406 157.759 52.7337 157.946 52.9198C158.133 53.1059 158.225 53.4781 158.273 54.0364C158.318 55.0134 158.273 55.9906 158.225 56.9676C158.178 57.6189 157.853 57.9445 157.153 57.9911C156.454 58.0376 155.382 58.0377 154.028 58.0377C153.143 58.0377 152.583 58.1307 152.304 58.3167C151.931 58.5959 151.744 59.2473 151.651 60.2243C151.604 61.341 151.604 62.5972 151.651 64.0394C151.697 64.784 151.837 65.2957 152.117 65.5748C152.396 65.854 152.909 65.9936 153.703 66.0401C153.563 66.0401 155.102 66.0401 158.273 66.0401C158.972 66.0401 159.485 66.0866 159.764 66.0866C160.371 66.1332 160.697 66.4589 160.744 66.9707C160.884 68.1803 160.884 69.2969 160.744 70.4136C160.697 70.9718 160.371 71.2976 159.764 71.344C159.392 71.3906 158.972 71.4372 158.505 71.4372C157.013 71.4372 153.608 71.4372 148.386 71.4372C148.059 71.4372 147.827 71.4372 147.641 71.4372C147.081 71.3906 146.708 71.251 146.521 71.065C146.288 70.8788 146.195 70.5066 146.148 69.9949C146.148 69.7622 146.148 69.2039 146.148 68.3665V55.3392H146.055Z" fill="#1D3C6E"/>
</g>
<defs>
<clipPath id="clip0">
<rect width="162" height="72" fill="white"/>
</clipPath>
</defs>
</svg>
