<?xml version="1.0" encoding="UTF-8"?>
<svg width="306px" height="96px" viewBox="0 0 306 96" version="1.1" xmlns="http://www.w3.org/2000/svg" xmlns:xlink="http://www.w3.org/1999/xlink">
    <!-- Generator: Sketch 53.2 (72643) - https://sketchapp.com -->
    <title>Bloco_LOGO_normal_AF_3 Copy</title>
    <desc>Created with Sketch.</desc>
    <g id="Page-1" stroke="none" stroke-width="1" fill="none" fill-rule="evenodd">
        <g id="Artboard" transform="translate(-111.000000, -1329.000000)" fill="#00d79f">
            <path d="M416.783501,1391.30502 C416.783501,1372.8966 401.774735,1357.92011 383.325603,1357.92011 C364.876471,1357.92011 349.867705,1372.8966 349.867705,1391.30502 C349.867705,1409.71056 364.876471,1424.68345 383.325603,1424.68345 C401.774735,1424.68345 416.783501,1409.71056 416.783501,1391.30502 Z M412.660689,1391.30502 C412.660689,1407.44252 399.500876,1420.57062 383.325603,1420.57062 C367.15033,1420.57062 353.989795,1407.44252 353.989795,1391.30502 C353.989795,1375.16464 367.15033,1362.03294 383.325603,1362.03294 C399.500876,1362.03294 412.660689,1375.16464 412.660689,1391.30502 Z M409.097685,1391.30574 C409.097685,1377.12604 397.536499,1365.58938 383.325603,1365.58938 C369.114707,1365.58938 357.552799,1377.12604 357.552799,1391.30574 C357.552799,1405.48544 369.114707,1417.02138 383.325603,1417.02138 C397.536499,1417.02138 409.097685,1405.48544 409.097685,1391.30574 Z M404.851514,1391.30574 C404.851514,1403.14975 395.194828,1412.78474 383.325603,1412.78474 C371.455656,1412.78474 361.799692,1403.14975 361.799692,1391.30574 C361.799692,1379.46245 371.455656,1369.82601 383.325603,1369.82601 C395.194828,1369.82601 404.851514,1379.46245 404.851514,1391.30574 Z M401.385899,1391.30214 C401.385899,1381.36627 393.283835,1373.28169 383.325603,1373.28169 C373.367371,1373.28169 365.264585,1381.36627 365.264585,1391.30214 C365.264585,1401.23801 373.367371,1409.32259 383.325603,1409.32259 C393.283835,1409.32259 401.385899,1401.23801 401.385899,1391.30214 Z M397.139006,1391.30214 C397.139006,1398.90159 390.942164,1405.08596 383.325603,1405.08596 C375.707599,1405.08596 369.510757,1398.90159 369.510757,1391.30214 C369.510757,1383.70197 375.707599,1377.51832 383.325603,1377.51832 C390.942164,1377.51832 397.139006,1383.70197 397.139006,1391.30214 Z M393.673392,1391.30214 C393.673392,1385.60795 389.03117,1380.97543 383.325603,1380.97543 C377.619314,1380.97543 372.977093,1385.60795 372.977093,1391.30214 C372.977093,1396.99489 377.619314,1401.62669 383.325603,1401.62669 C389.03117,1401.62669 393.673392,1396.99489 393.673392,1391.30214 Z M389.42722,1391.30214 C389.42722,1394.6592 386.690221,1397.39005 383.325603,1397.39005 C379.960985,1397.39005 377.223264,1394.6592 377.223264,1391.30214 C377.223264,1387.94364 379.960985,1385.21207 383.325603,1385.21207 C386.690221,1385.21207 389.42722,1387.94364 389.42722,1391.30214 Z M386.18524,1391.29998 C386.18524,1389.7251 384.904752,1388.44677 383.325603,1388.44677 C381.745733,1388.44677 380.465966,1389.7251 380.465966,1391.29998 C380.465966,1392.8763 381.745733,1394.15463 383.325603,1394.15463 C384.904752,1394.15463 386.18524,1392.8763 386.18524,1391.29998 Z M317.720595,1424.26742 L345.586906,1424.26742 L345.586906,1392.53081 L317.720595,1392.53081 L317.720595,1424.26742 Z M321.842685,1420.15459 L341.464816,1420.15459 L341.464816,1417.24379 L321.842685,1417.24379 L321.842685,1420.15459 Z M321.842685,1413.54195 L341.464816,1413.54195 L341.464816,1410.19785 L321.842685,1410.19785 L321.842685,1413.54195 Z M321.842685,1406.49601 L341.464816,1406.49601 L341.464816,1403.15191 L321.842685,1403.15191 L321.842685,1406.49601 Z M321.842685,1399.45079 L341.464816,1399.45079 L341.464816,1396.64364 L321.842685,1396.64364 L321.842685,1399.45079 Z M317.720595,1390.19871 L345.586906,1390.19871 L345.586906,1358.4621 L317.720595,1358.4621 L317.720595,1390.19871 Z M321.842685,1386.08588 L341.464816,1386.08588 L341.464816,1383.17509 L321.842685,1383.17509 L321.842685,1386.08588 Z M321.842685,1379.47325 L341.464816,1379.47325 L341.464816,1376.12914 L321.842685,1376.12914 L321.842685,1379.47325 Z M321.842685,1372.42803 L341.464816,1372.42803 L341.464816,1369.08392 L321.842685,1369.08392 L321.842685,1372.42803 Z M321.842685,1365.38208 L341.464816,1365.38208 L341.464816,1362.57565 L321.842685,1362.57565 L321.842685,1365.38208 Z M313.333028,1424.4085 L315.394073,1424.4085 L315.393352,1358.60246 L313.333028,1358.60246 C294.733845,1358.60246 279.603162,1373.3623 279.603162,1391.50512 C279.603162,1409.64865 294.733845,1424.4085 313.333028,1424.4085 Z M285.548956,1401.43739 L302.404511,1418.25508 C294.620585,1415.23704 288.454763,1409.09946 285.548956,1401.43739 Z M311.271983,1368.01936 L306.693245,1363.45163 C308.180776,1363.11837 309.707984,1362.88876 311.271983,1362.78439 L311.271983,1368.01936 Z M311.271983,1378.74339 L298.887677,1366.3869 C300.04192,1365.75709 301.244497,1365.2007 302.487472,1364.72276 L311.271983,1373.48826 L311.271983,1378.74339 Z M311.271983,1389.46382 L292.669914,1370.90497 C293.571667,1370.04915 294.531852,1369.25307 295.539651,1368.51385 L311.271983,1384.21013 L311.271983,1389.46382 Z M311.271983,1400.18568 L287.869706,1376.83813 C288.527625,1375.76277 289.251191,1374.73061 290.042569,1373.75098 L311.271983,1394.93272 L311.271983,1400.18568 Z M311.271983,1410.90971 L284.655139,1384.35337 C285.009348,1383.00954 285.461667,1381.70385 286.004161,1380.44351 L311.271983,1405.65459 L311.271983,1410.90971 Z M311.271983,1420.22657 C310.748245,1420.19058 310.228836,1420.13947 309.713034,1420.07829 L283.86304,1394.28707 C283.772865,1393.37151 283.725252,1392.44371 283.725252,1391.50512 C283.725252,1390.66369 283.768536,1389.83307 283.842119,1389.0082 L311.271983,1416.37861 L311.271983,1420.22657 Z M276.716112,1391.30502 C276.716112,1372.8966 261.706624,1357.92011 243.258214,1357.92011 C224.809804,1357.92011 209.800316,1372.8966 209.800316,1391.30502 C209.800316,1409.71056 224.809804,1424.68345 243.258214,1424.68345 C261.706624,1424.68345 276.716112,1409.71056 276.716112,1391.30502 Z M272.5933,1391.30502 C272.5933,1407.44252 259.434208,1420.57062 243.258214,1420.57062 C227.082219,1420.57062 213.922406,1407.44252 213.922406,1391.30502 C213.922406,1375.16464 227.082219,1362.03294 243.258214,1362.03294 C259.434208,1362.03294 272.5933,1375.16464 272.5933,1391.30502 Z M269.030296,1391.30574 C269.030296,1377.12604 257.469109,1365.58938 243.258214,1365.58938 C229.047318,1365.58938 217.48541,1377.12604 217.48541,1391.30574 C217.48541,1405.48544 229.047318,1417.02138 243.258214,1417.02138 C257.469109,1417.02138 269.030296,1405.48544 269.030296,1391.30574 Z M264.784125,1391.30574 C264.784125,1403.14975 255.127439,1412.78474 243.258214,1412.78474 C231.388267,1412.78474 221.731582,1403.14975 221.731582,1391.30574 C221.731582,1379.46245 231.388267,1369.82601 243.258214,1369.82601 C255.127439,1369.82601 264.784125,1379.46245 264.784125,1391.30574 Z M261.317788,1391.30214 C261.317788,1381.36627 253.215724,1373.28169 243.258214,1373.28169 C233.299982,1373.28169 225.197918,1381.36627 225.197918,1391.30214 C225.197918,1401.23801 233.299982,1409.32259 243.258214,1409.32259 C253.215724,1409.32259 261.317788,1401.23801 261.317788,1391.30214 Z M257.071617,1391.30214 C257.071617,1398.90159 250.875496,1405.08596 243.258214,1405.08596 C235.640931,1405.08596 229.444089,1398.90159 229.444089,1391.30214 C229.444089,1383.70197 235.640931,1377.51832 243.258214,1377.51832 C250.875496,1377.51832 257.071617,1383.70197 257.071617,1391.30214 Z M253.606002,1391.30214 C253.606002,1385.60795 248.963781,1380.97543 243.258214,1380.97543 C237.551925,1380.97543 232.909704,1385.60795 232.909704,1391.30214 C232.909704,1396.99489 237.551925,1401.62669 243.258214,1401.62669 C248.963781,1401.62669 253.606002,1396.99489 253.606002,1391.30214 Z M249.359831,1391.30214 C249.359831,1394.6592 246.622832,1397.39005 243.258214,1397.39005 C239.892874,1397.39005 237.155875,1394.6592 237.155875,1391.30214 C237.155875,1387.94364 239.892874,1385.21207 243.258214,1385.21207 C246.622832,1385.21207 249.359831,1387.94364 249.359831,1391.30214 Z M246.117851,1391.29998 C246.117851,1389.7251 244.837363,1388.44677 243.258214,1388.44677 C241.678344,1388.44677 240.397855,1389.7251 240.397855,1391.29998 C240.397855,1392.8763 241.678344,1394.15463 243.258214,1394.15463 C244.837363,1394.15463 246.117851,1392.8763 246.117851,1391.29998 Z M178.080997,1424.26814 L206.308731,1424.26814 L206.308731,1329 L178.080997,1329 L178.080997,1424.26814 Z M198.345897,1420.15531 L202.186641,1420.15531 L202.186641,1333.11283 L198.345897,1333.11283 L198.345897,1420.15531 Z M190.331843,1420.15531 L194.058606,1420.15531 L194.058606,1333.11283 L190.331843,1333.11283 L190.331843,1420.15531 Z M182.203087,1420.15531 L186.044552,1420.15531 L186.044552,1333.11283 L182.203087,1333.11283 L182.203087,1420.15531 Z M173.955299,1394.5901 L173.955299,1392.53369 L141.194276,1392.53369 L141.194276,1424.22135 L143.401044,1424.27102 C154.749417,1424.27102 173.955299,1418.01971 173.955299,1394.5901 Z M149.658484,1396.64652 C149.058278,1398.5453 147.363705,1399.96255 145.316366,1400.16193 L145.316366,1396.64652 L149.658484,1396.64652 Z M156.397099,1396.64652 C155.789679,1402.24066 151.064496,1406.61334 145.316366,1406.68819 L145.316366,1403.78099 C149.369202,1403.5521 152.684043,1400.55061 153.378753,1396.64652 L156.397099,1396.64652 Z M163.101087,1396.64652 C162.288788,1405.83885 154.669341,1413.10577 145.316366,1413.39008 L145.316366,1410.30797 C153.065665,1410.23168 159.409673,1404.23734 160.032243,1396.64652 L163.101087,1396.64652 Z M169.77694,1396.64652 C168.667424,1416.53912 151.466317,1419.61547 145.316366,1420.07829 L145.316366,1417.00986 C156.67051,1416.72123 165.913833,1407.83624 166.738395,1396.64652 L169.77694,1396.64652 Z M141.194276,1390.19871 L173.955299,1390.19871 L173.955299,1388.1423 C173.955299,1364.71341 154.749417,1358.4621 143.401044,1358.4621 L141.194276,1358.51177 L141.194276,1390.19871 Z M145.316366,1382.57191 C147.363705,1382.76985 149.058278,1384.1871 149.658484,1386.08588 L145.316366,1386.08588 L145.316366,1382.57191 Z M145.316366,1376.04493 C151.064496,1376.11907 155.789679,1380.49318 156.397099,1386.08588 L153.378753,1386.08588 C152.684043,1382.18251 149.369202,1379.18102 145.316366,1378.95213 L145.316366,1376.04493 Z M145.316366,1369.34304 C154.669341,1369.62736 162.288788,1376.89427 163.101087,1386.08588 L160.032243,1386.08588 C159.409673,1378.49507 153.065665,1372.50144 145.316366,1372.42515 L145.316366,1369.34304 Z M145.316366,1362.65411 C151.466317,1363.11693 168.667424,1366.194 169.77694,1386.08588 L166.738395,1386.08588 C165.913833,1374.89688 156.67051,1366.01117 145.316366,1365.72326 L145.316366,1362.65411 Z M111,1424.26742 L138.866312,1424.26742 L138.866312,1329 L111,1329 L111,1424.26742 Z M115.12209,1420.15459 L134.744222,1420.15459 L134.744222,1417.24739 L115.12209,1417.24739 L115.12209,1420.15459 Z M115.12209,1413.54627 L134.744222,1413.54627 L134.744222,1410.20217 L115.12209,1410.20217 L115.12209,1413.54627 Z M115.12209,1406.50033 L134.744222,1406.50033 L134.744222,1403.15622 L115.12209,1403.15622 L115.12209,1406.50033 Z M115.12209,1399.45439 L134.744222,1399.45439 L134.744222,1396.11028 L115.12209,1396.11028 L115.12209,1399.45439 Z M115.12209,1392.40916 L134.744222,1392.40916 L134.744222,1389.06506 L115.12209,1389.06506 L115.12209,1392.40916 Z M115.12209,1385.36322 L134.744222,1385.36322 L134.744222,1382.01912 L115.12209,1382.01912 L115.12209,1385.36322 Z M115.12209,1378.31728 L134.744222,1378.31728 L134.744222,1374.97533 L115.12209,1374.97533 L115.12209,1378.31728 Z M115.12209,1371.2735 L134.744222,1371.2735 L134.744222,1367.92939 L115.12209,1367.92939 L115.12209,1371.2735 Z M115.12209,1364.22755 L134.744222,1364.22755 L134.744222,1360.88345 L115.12209,1360.88345 L115.12209,1364.22755 Z M115.12209,1357.18233 L134.744222,1357.18233 L134.744222,1353.83823 L115.12209,1353.83823 L115.12209,1357.18233 Z M115.12209,1350.13639 L134.744222,1350.13639 L134.744222,1346.79228 L115.12209,1346.79228 L115.12209,1350.13639 Z M115.12209,1343.09045 L134.744222,1343.09045 L134.744222,1339.74634 L115.12209,1339.74634 L115.12209,1343.09045 Z M115.12209,1336.04522 L134.744222,1336.04522 L134.744222,1333.11283 L115.12209,1333.11283 L115.12209,1336.04522 Z" id="Bloco_LOGO_normal_AF_3-Copy"></path>
        </g>
    </g>
</svg>
