<svg class="thumb" width="1000" height="1000" viewBox="-50,-50,700,700" xmlns="http://www.w3.org/2000/svg" xmlns:inkscape="http://www.inkscape.org/namespaces/inkscape" xmlns:sodipodi="http://sodipodi.sourceforge.net/DTD/sodipodi-0.dtd" xmlns:xlink="http://www.w3.org/1999/xlink" xmlns:ns1="http://www.inkscape.org/namespaces/inkscape" xmlns:sketch="http://www.bohemiancoding.com/sketch/ns">
  <defs></defs>
  <g transform="matrix(2.9793,0,0,2.9793,-118.5931,85.7403)">
    <g transform="matrix(0.3966,-0.3571,0.2066,0.2294,58.4716,68.7216)">
      <svg width="186.075" height="74" viewBox="-5,55.718,186.075,74" class="thumb">
        <defs>
          <linearGradient x1="0" y1="0.5" x2="1" y2="0.5" id="linearGradientSk6ckn6vu4">
            <stop offset="0%" stop-color="#20bd67"></stop>
            <stop offset="100%" stop-color="#20bd67"></stop>
          </linearGradient>
        </defs>
        <g></g>
        <g>
          <polygon points="141.476,124.718 0,124.718 34.599,60.718 176.075,60.718 " fill="url('#linearGradientSk6ckn6vu4')" stroke="none" style=""></polygon>
        </g>
      </svg>
    </g>
    <g transform="matrix(0.3966,-0.3571,0.2066,0.2294,94.4716,67.7216)">
      <svg width="186.075" height="74" viewBox="-5,55.718,186.075,74" class="thumb">
        <defs>
          <linearGradient x1="0" y1="0.5" x2="1" y2="0.5" id="linearGradientSk6ckn6vua">
            <stop offset="0%" stop-color="#199450"></stop>
            <stop offset="100%" stop-color="#199450"></stop>
          </linearGradient>
        </defs>
        <g></g>
        <g>
          <polygon points="141.476,124.718 0,124.718 34.599,60.718 176.075,60.718 " fill="url('#linearGradientSk6ckn6vua')" stroke="none" style=""></polygon>
        </g>
      </svg>
    </g>
    <g transform="matrix(0.3966,-0.3571,0.2066,0.2294,132.4716,66.7216)">
      <svg width="186.075" height="74" viewBox="-5,55.718,186.075,74" class="thumb">
        <defs>
          <linearGradient x1="0" y1="0.5" x2="1" y2="0.5" id="linearGradientSk6ckn6vug">
            <stop offset="0%" stop-color="#11703c"></stop>
            <stop offset="100%" stop-color="#11703c"></stop>
          </linearGradient>
        </defs>
        <g></g>
        <g>
          <polygon points="141.476,124.718 0,124.718 34.599,60.718 176.075,60.718 " fill="url('#linearGradientSk6ckn6vug')" stroke="none" style=""></polygon>
        </g>
      </svg>
    </g>
    <g transform="matrix(0.5,0,0,0.5,45.725,95.25)">
      <svg width="379.1000000000001" height="181" style="overflow: visible;">
        <defs>
          <linearGradient x1="0" y1="0.5" x2="1" y2="0.5" id="linearGradientSk6ckn6vuo">
            <stop offset="0%" stop-color="#000000"></stop>
            <stop offset="100%" stop-color="#000000"></stop>
          </linearGradient>
        </defs>
        <g transform="matrix(1,0,0,1,0,90.75)">
          <path d="M 61.2-57L 24.5-57L 24.5-38.5L 56.9-38.5L 56.9-25.5L 24.5-25.5L 24.5 0L 8.3 0L 8.3-70L 61.2-70L 61.2-57ZM 72.19999999999997 0L 72.19999999999997-70L 88.39999999999998-70L 88.39999999999998 0L 72.19999999999997 0ZM 104.99999999999996 0L 104.99999999999996-70L 136.79999999999995-70Q 148.19999999999996-70  156.94999999999996-65.65Q 165.69999999999996-61.3  170.54999999999995-53.4Q 175.39999999999998-45.5  175.39999999999998-35L 175.39999999999998-35Q 175.39999999999998-24.5  170.54999999999995-16.6Q 165.69999999999996-8.7  156.94999999999996-4.35Q 148.19999999999996 0  136.79999999999995 0L 136.79999999999995 0L 104.99999999999996 0ZM 121.19999999999996-13.3L 135.99999999999994-13.3Q 146.49999999999994-13.3  152.74999999999994-19.15Q 158.99999999999994-25  158.99999999999994-35L 158.99999999999994-35Q 158.99999999999994-45  152.74999999999994-50.85Q 146.49999999999994-56.7  135.99999999999994-56.7L 135.99999999999994-56.7L 121.19999999999996-56.7L 121.19999999999996-13.3ZM 187.6 0L 187.6-70L 203.79999999999998-70L 203.79999999999998 0L 187.6 0ZM 237.3-13.2L 277.1-13.2L 277.1 0L 215.90000000000003 0L 215.90000000000003-10.5L 254.3-56.8L 216.70000000000002-56.8L 216.70000000000002-70L 275.6-70L 275.6-59.5L 237.3-13.2ZM 304.4000000000001-13.2L 344.2000000000001-13.2L 344.2000000000001 0L 283.0000000000001 0L 283.0000000000001-10.5L 321.4000000000001-56.8L 283.8000000000001-56.8L 283.8000000000001-70L 342.7000000000001-70L 342.7000000000001-59.5L 304.4000000000001-13.2ZM 354.6000000000002 0L 354.6000000000002-70L 370.8000000000002-70L 370.8000000000002 0L 354.6000000000002 0Z" data-textpath="FIDIZZI" data-text-anchor="middle" data-font-size="100" data-letterspacing="0" data-side="left" data-offset="0.5" data-dx="0" data-dy="0" data-xmlspace="preserve" data-href="" data-font="Montserrat" data-font-src="/Content/clientfonts/montserrat-bold.woff" data-font-scale="contain" transform="translate(0,0)" data-x="0" data-y="0" fill="url('#linearGradientSk6ckn6vuo')"></path>
        </g>
      </svg>
    </g>
  </g>
</svg>
